<svg width="13" height="17" viewBox="0 0 13 17" fill="none" xmlns="http://www.w3.org/2000/svg">
    <path d="M11.4024 5.14467C11.2312 3.359 9.69085 2.75997 7.74258 2.5774V0.11853H6.23645V2.53176C5.83995 2.53176 5.43489 2.53176 5.03268 2.53176V0.11853H3.53796V2.59452H0.48291V4.2062C0.48291 4.2062 1.59539 4.18623 1.57828 4.2062C1.77887 4.18413 1.98019 4.24079 2.13983 4.36424C2.29946 4.48769 2.40494 4.66829 2.43404 4.86798V11.6456C2.42975 11.716 2.41138 11.7848 2.38003 11.8481C2.34867 11.9113 2.30496 11.9675 2.25147 12.0135C2.19899 12.0604 2.13758 12.0962 2.07091 12.1188C2.00424 12.1413 1.9337 12.1502 1.86353 12.1448C1.8835 12.1619 0.768162 12.1448 0.768162 12.1448L0.48291 13.9447H3.50944V16.4606H5.01557V13.9818H6.21933V16.4492H7.72832V13.9618C10.2728 13.8078 12.047 13.1802 12.2695 10.7984C12.4492 8.88148 11.5478 8.02572 10.1073 7.68057C10.983 7.24984 11.525 6.45113 11.4024 5.14467ZM9.2915 10.5017C9.2915 12.373 6.08526 12.159 5.06406 12.159V8.83869C6.08526 8.84154 9.2915 8.54773 9.2915 10.5017ZM8.59263 5.82358C8.59263 7.53509 5.91696 7.32685 5.06691 7.32685V4.30889C5.91696 4.30889 8.59263 4.04075 8.59263 5.82358Z"
          fill="#F09242"/>
</svg>