<svg width="14" height="14" viewBox="0 0 14 14" fill="none" xmlns="http://www.w3.org/2000/svg">
    <path fill-rule="evenodd" clip-rule="evenodd"
          d="M7.00004 1.18444C3.78817 1.18444 1.18444 3.78817 1.18444 7.00004C1.18444 10.2119 3.78817 12.8156 7.00004 12.8156C10.2119 12.8156 12.8156 10.2119 12.8156 7.00004C12.8156 3.78817 10.2119 1.18444 7.00004 1.18444ZM0.333374 7.00004C0.333374 3.31814 3.31814 0.333374 7.00004 0.333374C10.6819 0.333374 13.6667 3.31814 13.6667 7.00004C13.6667 10.6819 10.6819 13.6667 7.00004 13.6667C3.31814 13.6667 0.333374 10.6819 0.333374 7.00004Z"
          fill="currentColor"/>
    <path d="M7.30082 7.99093H6.42973C6.43233 7.74874 6.45317 7.54561 6.49223 7.38155C6.53129 7.21488 6.5964 7.06384 6.68754 6.92843C6.78129 6.79301 6.90499 6.64978 7.05863 6.49874C7.17843 6.38416 7.2865 6.27608 7.38285 6.17452C7.47921 6.07035 7.55603 5.96098 7.61332 5.8464C7.67061 5.72921 7.69926 5.59509 7.69926 5.44405C7.69926 5.27999 7.67192 5.14067 7.61723 5.02608C7.56254 4.9115 7.48181 4.82426 7.37504 4.76436C7.27087 4.70447 7.14067 4.67452 6.98442 4.67452C6.85421 4.67452 6.73181 4.70056 6.61723 4.75265C6.50265 4.80212 6.4102 4.88025 6.33988 4.98702C6.26957 5.09119 6.23181 5.22921 6.2266 5.40108H5.2852C5.29041 5.07296 5.36853 4.79692 5.51957 4.57296C5.67061 4.349 5.87374 4.18103 6.12895 4.06905C6.38416 3.95707 6.66931 3.90108 6.98442 3.90108C7.33337 3.90108 7.63155 3.96098 7.87895 4.08077C8.12634 4.19796 8.31515 4.36983 8.44535 4.5964C8.57817 4.82035 8.64457 5.09119 8.64457 5.4089C8.64457 5.63806 8.599 5.8464 8.50785 6.0339C8.41671 6.21879 8.29822 6.39197 8.15238 6.55343C8.00655 6.71228 7.849 6.87113 7.67973 7.02999C7.5339 7.1628 7.43494 7.30733 7.38285 7.46358C7.33077 7.61723 7.30343 7.79301 7.30082 7.99093ZM6.3516 9.20968C6.3516 9.06905 6.39978 8.95056 6.49613 8.85421C6.59249 8.75525 6.724 8.70577 6.89067 8.70577C7.05733 8.70577 7.18884 8.75525 7.2852 8.85421C7.38155 8.95056 7.42973 9.06905 7.42973 9.20968C7.42973 9.3503 7.38155 9.47009 7.2852 9.56905C7.18884 9.66541 7.05733 9.71358 6.89067 9.71358C6.724 9.71358 6.59249 9.66541 6.49613 9.56905C6.39978 9.47009 6.3516 9.3503 6.3516 9.20968Z"
          fill="currentColor"/>
</svg>