<svg width="14" height="14" viewBox="0 0 14 14" fill="none" xmlns="http://www.w3.org/2000/svg">
    <path fill-rule="evenodd" clip-rule="evenodd"
          d="M7 0.893617C3.62754 0.893617 0.893617 3.62754 0.893617 7C0.893617 10.3725 3.62754 13.1064 7 13.1064C10.3725 13.1064 13.1064 10.3725 13.1064 7C13.1064 3.62754 10.3725 0.893617 7 0.893617ZM0 7C0 3.13401 3.13401 0 7 0C10.866 0 14 3.13401 14 7C14 10.866 10.866 14 7 14C3.13401 14 0 10.866 0 7Z"
          fill="currentColor"/>
    <path fill-rule="evenodd" clip-rule="evenodd"
          d="M5.95745 6.40426C5.95745 6.15749 6.15749 5.95745 6.40426 5.95745H7C7.24677 5.95745 7.44681 6.15749 7.44681 6.40426V8.93617H7.59574C7.84251 8.93617 8.04255 9.13621 8.04255 9.38298C8.04255 9.62974 7.84251 9.82979 7.59574 9.82979H6.40426C6.15749 9.82979 5.95745 9.62974 5.95745 9.38298C5.95745 9.13621 6.15749 8.93617 6.40426 8.93617H6.55319V6.85106H6.40426C6.15749 6.85106 5.95745 6.65102 5.95745 6.40426Z"
          fill="currentColor"/>
    <path d="M7.59574 4.61702C7.59574 4.288 7.32902 4.02128 7 4.02128C6.67098 4.02128 6.40426 4.288 6.40426 4.61702C6.40426 4.94604 6.67098 5.21277 7 5.21277C7.32902 5.21277 7.59574 4.94604 7.59574 4.61702Z"
          fill="currentColor"/>
</svg>
