<svg width="2118" height="1113" viewBox="0 0 2118 1113" fill="none" xmlns="http://www.w3.org/2000/svg">
<g clip-path="url(#clip0_719_7736)">
<path opacity="0.994" fill-rule="evenodd" clip-rule="evenodd" d="M374.5 -0.5C379.833 -0.5 385.167 -0.5 390.5 -0.5C400.949 1.47892 409.782 6.47892 417 14.5C419.975 23.39 421.475 32.5567 421.5 42C420.836 97.8337 420.169 153.667 419.5 209.5C419.558 218.758 421.058 227.758 424 236.5C478.333 293.5 534 349.167 591 403.5C602.914 417.567 603.581 432.234 593 447.5C586.357 455.732 578.19 461.899 568.5 466C559.996 468.737 551.996 467.737 544.5 463C468.833 388.667 393.833 313.667 319.5 238C307.343 227.212 295.009 226.878 282.5 237C223.918 295.248 165.751 353.748 108 412.5C103.773 418.725 102.773 425.392 105 432.5C107.27 437.098 109.937 441.431 113 445.5C188.694 520.861 264.027 596.527 339 672.5C343.554 685.285 341.554 696.952 333 707.5C326.93 715.244 319.43 721.077 310.5 725C301.808 728.758 293.475 728.091 285.5 723C281.5 719.667 277.5 716.333 273.5 713C186.333 624.5 98.5 536.667 10 449.5C5.68885 443.864 2.18885 437.864 -0.5 431.5C-0.5 428.167 -0.5 424.833 -0.5 421.5C0.931677 417.2 3.09834 413.2 6 409.5C63.0276 352.806 119.694 295.806 176 238.5C180.358 229.526 182.191 220.026 181.5 210C180.871 153.826 180.204 97.6593 179.5 41.5C180.059 34.4622 180.892 27.4622 182 20.5C186.362 8.87178 194.862 2.37178 207.5 1C219.708 -0.810181 231.375 0.856486 242.5 6C251.182 11.3466 255.349 19.18 255 29.5C255.167 72.1706 255.667 114.837 256.5 157.5C265.998 147.837 275.998 138.67 286.5 130C295.311 123.166 304.311 122.833 313.5 129C324.333 139.167 335.167 149.333 346 159.5C347.745 124.178 347.911 88.8446 346.5 53.5C346.408 42.4593 346.908 31.4593 348 20.5C349.432 15.1388 352.266 10.6388 356.5 7C362.24 3.62265 368.24 1.12265 374.5 -0.5Z" fill="#8A5FF3"/>
<path opacity="0.991" fill-rule="evenodd" clip-rule="evenodd" d="M899.5 353.5C943.369 350.251 984.369 359.418 1022.5 381C1032.59 387.378 1041.92 394.711 1050.5 403C1038.63 425.915 1026.13 448.415 1013 470.5C979.787 442.095 941.287 429.262 897.5 432C876.886 434.214 860.719 443.714 849 460.5C840.542 479.076 842.542 496.409 855 512.5C870.537 527.365 888.37 538.865 908.5 547C936.331 557.834 963.664 569.834 990.5 583C1014.77 597.267 1033.6 616.767 1047 641.5C1056.92 667.445 1059.26 694.111 1054 721.5C1041.52 770.321 1011.35 802.821 963.5 819C888.419 837.519 820.419 823.185 759.5 776C755.434 771.934 751.434 767.934 747.5 764C762.272 742.732 777.605 721.899 793.5 701.5C815.955 720.567 841.288 734.733 869.5 744C892.872 751.204 916.206 751.204 939.5 744C965.686 732.478 976.186 712.645 971 684.5C967.2 674.03 961.033 665.197 952.5 658C937.321 646.57 920.988 636.903 903.5 629C876.577 618.356 850.244 606.356 824.5 593C762.507 553.014 745.007 498.514 772 429.5C794.279 391.416 827.112 367.582 870.5 358C880.262 356.155 889.928 354.655 899.5 353.5Z" fill="white"/>
<path opacity="0.993" fill-rule="evenodd" clip-rule="evenodd" d="M383.5 1112.5C383.167 1112.5 382.833 1112.5 382.5 1112.5C370.204 1112.01 359.371 1107.68 350 1099.5C348.073 1096.05 346.739 1092.39 346 1088.5C344.787 1043.74 344.287 999.075 344.5 954.5C333.982 964.186 323.315 973.686 312.5 983C303.795 988.993 295.128 988.993 286.5 983C276 973.167 265.5 963.333 255 953.5C253.631 968.241 252.797 983.075 252.5 998C253.07 1014.99 253.403 1031.99 253.5 1049C253.624 1063.88 253.124 1078.71 252 1093.5C248.909 1102.92 242.409 1108.42 232.5 1110C227.706 1110.9 223.039 1111.74 218.5 1112.5C217.833 1112.5 217.167 1112.5 216.5 1112.5C203.912 1112.13 193.078 1107.46 184 1098.5C182.725 1096.28 181.725 1093.95 181 1091.5C179.857 1061.53 179.357 1031.53 179.5 1001.5C179.552 969.162 179.885 936.829 180.5 904.5C181.124 893.694 179.291 883.361 175 873.5C165.333 863.167 155.667 852.833 146 842.5C99.3333 796.5 52.6667 750.5 6 704.5C3.53607 700.566 1.36941 696.566 -0.5 692.5C-0.5 688.5 -0.5 684.5 -0.5 680.5C6.4046 660.265 20.4046 648.265 41.5 644.5C46.7322 644.3 51.3988 645.8 55.5 649C132.139 724.639 208.473 800.639 284.5 877C293.348 884.774 302.681 885.44 312.5 879C373.721 819.113 434.221 758.613 494 697.5C497.628 691.809 498.295 685.809 496 679.5C493.916 675.664 491.583 671.997 489 668.5C412.557 592.724 336.89 516.391 262 439.5C256.246 426.82 257.912 415.153 267 404.5C276.034 393.152 287.701 386.485 302 384.5C309.367 385.934 315.867 389.1 321.5 394C410.639 484.139 500.139 573.973 590 663.5C594.889 668.729 598.555 674.729 601 681.5C602.232 689.137 600.232 695.804 595 701.5C542.638 755.529 489.305 808.529 435 860.5C430.262 865.64 426.262 871.307 423 877.5C421.358 882.708 420.358 888.041 420 893.5C419.223 951.671 419.389 1009.84 420.5 1068C421.171 1078.98 419.338 1089.48 415 1099.5C406.097 1107.85 395.597 1112.19 383.5 1112.5Z" fill="#8A5FF3"/>
<path opacity="0.989" fill-rule="evenodd" clip-rule="evenodd" d="M1234.5 482.5C1265.63 479.827 1295.63 484.327 1324.5 496C1365.57 517.596 1387.41 551.763 1390 598.5C1390.5 672.166 1390.67 745.833 1390.5 819.5C1364.83 819.5 1339.17 819.5 1313.5 819.5C1313.34 802.436 1313.84 785.436 1315 768.5C1284.2 814.141 1241.36 832.974 1186.5 825C1122.22 808.965 1095.06 768.132 1105 702.5C1114.65 669.513 1135.48 646.68 1167.5 634C1212.69 617.377 1259.36 610.211 1307.5 612.5C1309.24 594.953 1304.58 579.453 1293.5 566C1279.81 555.159 1264.14 549.993 1246.5 550.5C1212.77 552.131 1182.27 562.798 1155 582.5C1143.87 562.912 1133.87 542.912 1125 522.5C1137.86 512.482 1152.03 504.648 1167.5 499C1189.31 490.798 1211.64 485.298 1234.5 482.5ZM1271.5 669.5C1283.83 669.5 1296.17 669.5 1308.5 669.5C1309.59 703.148 1297.25 730.648 1271.5 752C1251.99 764.418 1231.33 766.751 1209.5 759C1188.22 747.503 1180.72 730.003 1187 706.5C1192.56 695.276 1201.06 687.11 1212.5 682C1231.66 674.813 1251.32 670.646 1271.5 669.5Z" fill="white"/>
<path opacity="0.991" fill-rule="evenodd" clip-rule="evenodd" d="M1432.5 489.5C1461.74 489.171 1490.91 489.505 1520 490.5C1542.67 557.833 1565.33 625.167 1588 692.5C1591.84 709.536 1595.84 726.536 1600 743.5C1603.04 727.352 1606.7 711.352 1611 695.5C1634.34 626.983 1657.17 558.316 1679.5 489.5C1708.84 489.167 1738.17 489.5 1767.5 490.5C1728.17 599.833 1688.83 709.167 1649.5 818.5C1616.83 819.833 1584.17 819.833 1551.5 818.5C1511.63 708.886 1471.96 599.219 1432.5 489.5Z" fill="white"/>
<path opacity="0.991" fill-rule="evenodd" clip-rule="evenodd" d="M2117.5 489.5C2117.5 490.5 2117.5 491.5 2117.5 492.5C2069.2 615.537 2021.37 738.871 1974 862.5C1950.09 928.879 1902.92 959.046 1832.5 953C1814.84 950.006 1798.67 943.506 1784 933.5C1792.33 913.162 1800.99 892.829 1810 872.5C1810.41 872.043 1810.91 871.709 1811.5 871.5C1832.05 886.62 1853.71 888.454 1876.5 877C1885.38 871.121 1892.55 863.621 1898 854.5C1904.62 841.316 1910.45 827.816 1915.5 814C1869.92 706.005 1823.92 598.172 1777.5 490.5C1808.73 489.172 1839.9 489.172 1871 490.5C1892.67 549.833 1914.33 609.167 1936 668.5C1941.8 686.698 1947.13 705.031 1952 723.5C1955.67 709.5 1959.33 695.5 1963 681.5C1984.61 617.502 2006.11 553.502 2027.5 489.5C2057.5 489.5 2087.5 489.5 2117.5 489.5Z" fill="white"/>
</g>
<defs>
<clipPath id="clip0_719_7736">
<rect width="2118" height="1113" fill="white"/>
</clipPath>
</defs>
</svg>
