<svg width="2118" height="1112" viewBox="0 0 2118 1112" fill="none" xmlns="http://www.w3.org/2000/svg">
<g clip-path="url(#clip0_719_7743)">
<path opacity="0.989" fill-rule="evenodd" clip-rule="evenodd" d="M897.5 353.5C951.356 348.873 999.69 362.707 1042.5 395C1045.23 397.733 1047.9 400.4 1050.5 403C1038.63 425.915 1026.13 448.415 1013 470.5C984.212 446.228 950.879 432.895 913 430.5C888.678 429.506 868.345 437.839 852 455.5C838.739 479.105 841.906 500.272 861.5 519C875.34 529.761 890.34 538.761 906.5 546C927.397 554.115 948.063 562.782 968.5 572C1003.87 586.039 1030.37 609.872 1048 643.5C1054.37 658.863 1057.21 674.863 1056.5 691.5C1055.42 747.719 1029.75 788.219 979.5 813C910.275 836.531 844.275 829.531 781.5 792C768.825 784.164 757.492 774.664 747.5 763.5C762.432 742.625 777.599 721.958 793 701.5C816.778 721.312 843.612 735.812 873.5 745C896.409 751.567 919.075 750.901 941.5 743C972.335 726.828 980.168 702.994 965 671.5C952.502 657.003 937.668 645.503 920.5 637C888.914 623.248 857.58 608.914 826.5 594C763.779 555.175 745.279 501.009 771 431.5C791.912 393.766 823.412 369.6 865.5 359C876.221 356.639 886.888 354.806 897.5 353.5Z" fill="#001833"/>
<path opacity="0.993" fill-rule="evenodd" clip-rule="evenodd" d="M392.5 1111.5C385.833 1111.5 379.167 1111.5 372.5 1111.5C365.786 1109.75 359.453 1106.92 353.5 1103C349.291 1099.08 346.791 1094.25 346 1088.5C344.613 1043.47 344.28 998.474 345 953.5C334.85 963.313 324.35 972.813 313.5 982C304.137 989.265 294.803 989.265 285.5 982C275.333 972.5 265.167 963 255 953.5C253.641 968.075 252.808 982.742 252.5 997.5C253.575 1027.83 253.742 1058.16 253 1088.5C252.499 1094.67 249.999 1099.83 245.5 1104C239.851 1107.6 233.851 1110.1 227.5 1111.5C220.833 1111.5 214.167 1111.5 207.5 1111.5C200.786 1109.75 194.453 1106.92 188.5 1103C183.131 1098.43 180.297 1092.59 180 1085.5C179.432 1020.83 179.432 956.16 180 891.5C179.698 883.257 177.031 875.924 172 869.5C165.634 863.469 159.634 857.136 154 850.5C104.667 801.833 55.3333 753.167 6 704.5C3.53607 700.566 1.36941 696.566 -0.5 692.5C-0.5 688.5 -0.5 684.5 -0.5 680.5C5.52232 663.31 17.189 651.476 34.5 645C44.1351 642.881 52.4684 645.214 59.5 652C134.5 727 209.5 802 284.5 877C293.33 884.694 302.664 885.361 312.5 879C372.639 819.861 432.473 760.361 492 700.5C498.363 692.6 499.03 684.266 494 675.5C490.715 670.546 487.048 665.88 483 661.5C410 588.5 337 515.5 264 442.5C257.084 432.075 256.751 421.409 263 410.5C271.916 395.964 284.75 387.297 301.5 384.5C308.821 385.161 315.155 387.995 320.5 393C410.306 483.806 500.473 574.306 591 664.5C596.639 670.445 600.139 677.445 601.5 685.5C600.648 691.873 598.148 697.54 594 702.5C541.305 756.862 487.638 810.195 433 862.5C424.555 871.063 420.221 881.397 420 893.5C419.445 956.173 419.445 1018.84 420 1081.5C420.153 1091.42 416.319 1099.26 408.5 1105C403.393 1108.06 398.06 1110.23 392.5 1111.5Z" fill="#895EF2"/>
<path opacity="0.994" fill-rule="evenodd" clip-rule="evenodd" d="M214.5 -0.5C216.5 -0.5 218.5 -0.5 220.5 -0.5C232.419 0.2017 242.586 4.86837 251 13.5C252.197 16.0891 253.197 18.7558 254 21.5C255.292 66.8081 255.958 112.141 256 157.5C265.817 148.02 275.983 138.854 286.5 130C297.41 122.125 307.743 122.792 317.5 132C326.696 141.53 336.196 150.697 346 159.5C347.745 124.178 347.911 88.8446 346.5 53.5C346.408 42.4593 346.908 31.4593 348 20.5C349.139 14.3568 352.306 9.52351 357.5 6C362.744 3.31502 368.077 1.14836 373.5 -0.5C379.5 -0.5 385.5 -0.5 391.5 -0.5C401.512 1.76218 410.012 6.76218 417 14.5C419.975 23.39 421.475 32.5567 421.5 42C420.836 97.8337 420.169 153.667 419.5 209.5C419.121 220.091 421.288 230.091 426 239.5C480.362 295.529 535.695 350.529 592 404.5C602.975 418.504 603.309 432.837 593 447.5C585.379 456.795 575.879 463.295 564.5 467C556.698 468.62 549.698 466.953 543.5 462C469.805 389.972 397.138 316.972 325.5 243C319.621 237.455 312.955 233.122 305.5 230C297.143 228.343 289.809 230.343 283.5 236C226.973 292.861 170.139 349.361 113 405.5C107.955 411.257 104.789 417.923 103.5 425.5C104.875 433.584 108.375 440.584 114 446.5C189.361 521.527 264.361 596.861 339 672.5C343.558 685.273 341.558 696.94 333 707.5C324.172 718.575 312.839 725.242 299 727.5C292.423 726.752 286.59 724.252 281.5 720C191.639 629.806 101.473 539.973 11 450.5C6.10913 444.702 2.27579 438.369 -0.5 431.5C-0.5 428.167 -0.5 424.833 -0.5 421.5C2.03547 414.784 5.8688 408.784 11 403.5C66 348.5 121 293.5 176 238.5C180.334 229.169 182.168 219.336 181.5 209C180.871 153.159 180.204 97.326 179.5 41.5C179.74 32.2724 181.24 23.2724 184 14.5C188.013 9.15957 193.179 5.32624 199.5 3C204.545 1.42533 209.545 0.258665 214.5 -0.5Z" fill="#895EF2"/>
<path opacity="0.988" fill-rule="evenodd" clip-rule="evenodd" d="M1233.5 482.5C1264.21 479.712 1293.87 483.879 1322.5 495C1364.9 516.257 1387.4 550.757 1390 598.5C1390.5 672.166 1390.67 745.833 1390.5 819.5C1364.83 819.5 1339.17 819.5 1313.5 819.5C1313.33 802.11 1313.83 784.777 1315 767.5C1294.69 800.592 1265.19 820.092 1226.5 826C1191.16 830.337 1159.82 821.337 1132.5 799C1104.72 770.706 1095.88 737.206 1106 698.5C1114.03 673.278 1129.53 654.112 1152.5 641C1188.61 624.14 1226.61 614.806 1266.5 613C1280.16 612.5 1293.83 612.333 1307.5 612.5C1308.75 570.748 1288.42 550.081 1246.5 550.5C1212.78 552.128 1182.28 562.795 1155 582.5C1143.87 562.912 1133.87 542.912 1125 522.5C1148.36 505.74 1174.2 494.24 1202.5 488C1212.9 485.733 1223.24 483.9 1233.5 482.5ZM1268.5 669.5C1281.83 669.5 1295.17 669.5 1308.5 669.5C1309.53 705.601 1295.53 734.101 1266.5 755C1245.13 766.255 1223.79 766.255 1202.5 755C1183.52 739.233 1179.68 720.4 1191 698.5C1203.57 684.962 1219.07 676.795 1237.5 674C1247.94 672.239 1258.28 670.739 1268.5 669.5Z" fill="#001833"/>
<path opacity="0.987" fill-rule="evenodd" clip-rule="evenodd" d="M1432.5 489.5C1461.74 489.171 1490.91 489.505 1520 490.5C1542.67 557.833 1565.33 625.167 1588 692.5C1591.75 709.231 1595.75 725.898 1600 742.5C1603.16 726.711 1606.82 711.045 1611 695.5C1634.34 626.983 1657.17 558.316 1679.5 489.5C1708.84 489.167 1738.17 489.5 1767.5 490.5C1728.04 599.386 1688.87 708.386 1650 817.5C1617.39 819.489 1584.56 820.155 1551.5 819.5C1511.84 709.512 1472.17 599.512 1432.5 489.5Z" fill="#001833"/>
<path opacity="0.987" fill-rule="evenodd" clip-rule="evenodd" d="M2117.5 489.5C2117.5 490.5 2117.5 491.5 2117.5 492.5C2068.5 617.189 2020 742.189 1972 867.5C1951.53 922.626 1911.86 951.626 1853 954.5C1827.83 954.296 1804.83 947.296 1784 933.5C1789.33 919.83 1794.99 906.163 1801 892.5C1804.01 885.156 1807.51 878.156 1811.5 871.5C1833.45 887.397 1856.11 888.564 1879.5 875C1887.09 869.412 1893.26 862.579 1898 854.5C1904.72 841.179 1910.55 827.512 1915.5 813.5C1869.9 705.693 1823.9 598.026 1777.5 490.5C1808.73 489.172 1839.9 489.172 1871 490.5C1893.67 552.5 1916.33 614.5 1939 676.5C1943.33 692.167 1947.67 707.833 1952 723.5C1955.18 710.462 1958.51 697.462 1962 684.5C1983.73 619.796 2005.57 555.13 2027.5 490.5C2057.49 489.5 2087.49 489.167 2117.5 489.5Z" fill="#001833"/>
</g>
<defs>
<clipPath id="clip0_719_7743">
<rect width="2118" height="1112" fill="white"/>
</clipPath>
</defs>
</svg>
