<svg width="51" height="31" viewBox="0 0 51 31" fill="none" xmlns="http://www.w3.org/2000/svg">
<path d="M47.9686 3.50133C45.9476 1.16639 43.2191 -1.90735e-06 39.7808 -1.90735e-06C37.7599 -1.90735e-06 35.9683 0.42631 34.4083 1.27678C32.8758 2.1123 31.653 3.1999 30.7364 4.54258V0.271711H30.6864H20.2637H20.2595V16.6123C20.2595 18.3508 19.8159 19.7161 18.9309 20.7124C18.0438 21.7087 16.8385 22.2056 15.3152 22.2056C13.8266 22.2056 12.63 21.7087 11.7256 20.7124C10.8211 19.7161 10.3689 18.3508 10.3689 16.6123V0.271711H0V17.9708C0 21.987 1.00185 25.1636 3.00335 27.4987C5.00705 29.8315 7.74636 31 11.2192 31C13.2402 31 15.0318 30.5737 16.5919 29.7232C18.1498 28.8749 19.3745 27.7616 20.2595 26.3853V30.7283H20.2637H30.6864H30.7364V13.4234C30.8746 12.1364 31.3012 11.0917 32.0172 10.2876C32.9023 9.29359 34.1248 8.79428 35.6848 8.79428C37.1735 8.79428 38.3614 9.29359 39.2486 10.2876C40.1336 11.284 40.5772 12.6492 40.5772 14.3877V30.7283H51V12.9762C51 8.99533 49.9895 5.83637 47.9686 3.50133Z" fill="#1c2d63"/>
</svg>
