<svg width="14" height="14" viewBox="0 0 14 14" fill="none" xmlns="http://www.w3.org/2000/svg">
    <path fill-rule="evenodd" clip-rule="evenodd"
          d="M0.469626 0.469714C0.762495 0.176796 1.23737 0.176757 1.53029 0.469626L7 5.93843L12.4697 0.46967C12.7626 0.17681 13.2375 0.176795 13.5304 0.469692C13.8232 0.762589 13.8232 1.23745 13.5303 1.53033L8.06089 6.99977L13.5304 12.4697C13.8232 12.7626 13.8232 13.2375 13.5303 13.5304C13.2374 13.8232 12.7625 13.8232 12.4696 13.5303L7.00046 8.06066L1.53033 13.5303C1.23743 13.8232 0.762542 13.8232 0.469659 13.5303C0.176776 13.2374 0.176781 12.7626 0.46967 12.4697L5.9398 6.99954L0.469714 1.53037C0.176797 1.23751 0.176757 0.762632 0.469626 0.469714Z"
          fill="currentColor"/>
</svg>