<svg width="56" height="56" viewBox="0 0 56 56" fill="none" xmlns="http://www.w3.org/2000/svg">
    <path d="M15.3999 22.5361C15.3999 15.5032 21.1016 9.80005 28.136 9.80005C35.169 9.80005 40.8721 15.5017 40.8721 22.5361C40.8721 25.3397 39.9651 27.9311 38.4304 30.0356C36.6122 32.7753 31.8886 35.8681 31.8886 37.7212V39.8373C31.8886 40.2603 31.5456 40.6018 31.1242 40.6018H29.0778H27.1971H25.1507C24.7278 40.6018 24.3862 40.2588 24.3862 39.8373V37.7212C24.3862 35.8681 19.6627 32.7753 17.8445 30.0356C16.3068 27.9326 15.3999 25.3412 15.3999 22.5361Z"
          fill="#FDD305"/>
    <path d="M29.582 40.3909C29.5674 40.0712 29.3393 34.9596 29.7491 30.4788C29.2477 30.5384 28.7099 30.5703 28.1358 30.5703C27.5617 30.5703 27.0254 30.5384 26.5226 30.4788C26.9324 34.9596 26.7042 40.0712 26.6883 40.3909L26.463 40.3807C26.4659 40.3022 26.7028 35.0148 26.2842 30.4482C22.5069 29.9236 20.8166 27.7827 20.5128 25.764C20.3355 24.5838 20.7381 23.4095 21.4706 22.9705C21.9153 22.7046 22.4531 22.6508 23.0243 22.815C23.9239 23.0737 24.7785 23.8484 25.3104 24.889C25.9252 26.091 26.2886 28.085 26.4979 30.2506C27.0051 30.3131 27.5487 30.3465 28.1315 30.3465C28.7157 30.3465 29.2593 30.3131 29.7651 30.2506C29.9744 28.085 30.3377 26.091 30.9525 24.889C31.4845 23.8484 32.3405 23.0737 33.2387 22.815C33.8099 22.6508 34.3476 22.7046 34.7924 22.9705C35.5249 23.4095 35.9289 24.5838 35.7502 25.764C35.4464 27.7842 33.7561 29.9236 29.9787 30.4482C29.5602 35.0134 29.7971 40.3008 29.8 40.3807L29.582 40.3909ZM33.8753 22.9473C33.6936 22.9473 33.5032 22.9749 33.307 23.0316C32.4655 23.2728 31.6632 24.0054 31.1589 24.9908C30.5674 26.1462 30.2142 28.0923 30.0078 30.2186C33.6268 29.6968 35.2458 27.6577 35.5351 25.7305C35.6964 24.6536 35.3301 23.5504 34.6834 23.1638C34.4421 23.02 34.1689 22.9473 33.8753 22.9473ZM22.3964 22.9473C22.1028 22.9473 21.8296 23.02 21.5883 23.1638C20.9415 23.5504 20.5753 24.655 20.7366 25.7305C21.0258 27.6563 22.6464 29.6968 26.2639 30.2186C26.0575 28.0923 25.7043 26.1462 25.1128 24.9908C24.6085 24.0054 23.8047 23.2728 22.9647 23.0316C22.7699 22.9764 22.5795 22.9473 22.3964 22.9473Z"
          fill="white"/>
    <path d="M38.7517 23.2672C38.3476 23.2672 38.0206 22.9402 38.0206 22.5361C38.0206 18.0044 34.9569 14.0643 30.5705 12.9539C30.1796 12.8551 29.9426 12.4568 30.0415 12.0659C30.1403 11.6749 30.5385 11.438 30.9295 11.5368C35.9655 12.8115 39.4827 17.3344 39.4827 22.5361C39.4813 22.9402 39.1543 23.2672 38.7517 23.2672Z"
          fill="#FFEE99"/>
    <path d="M27.8901 11.9015C27.8901 12.3055 28.2172 12.6325 28.6212 12.6325C29.0252 12.6325 29.3523 12.3055 29.3523 11.9015C29.3523 11.4974 29.0252 11.1704 28.6212 11.1704C28.2172 11.1704 27.8901 11.4974 27.8901 11.9015Z"
          fill="#FFEE99"/>
    <g opacity="0.55">
        <g opacity="0.55">
            <g opacity="0.55">
                <path opacity="0.55"
                      d="M40.8471 23.2903C40.1436 28.5123 35.9288 33.9189 28.1357 33.9189C20.344 33.9189 16.2847 28.2594 15.4243 23.2903C15.5711 25.8047 16.4446 28.1228 17.8413 30.0355C19.6595 32.7751 24.383 35.8679 24.383 37.721V39.8372C24.383 40.2601 24.726 40.6016 25.1475 40.6016H27.1939H29.0746H31.121C31.5439 40.6016 31.8854 40.2586 31.8854 39.8372V37.721C31.8854 35.8679 36.609 32.7751 38.4272 30.0355C39.8253 28.1214 40.7003 25.8032 40.8471 23.2903Z"
                      fill="#FFC043"/>
            </g>
        </g>
    </g>
    <path d="M32.1896 38.6252H24.084V42.4884C24.084 43.1191 24.2642 43.7368 24.6014 44.2702C25.2409 45.2774 26.3498 45.8864 27.5431 45.8864H28.7319C29.9252 45.8864 31.0341 45.276 31.6736 44.2702C32.0122 43.7383 32.191 43.1191 32.191 42.4884V38.6252H32.1896Z"
          fill="#28364C"/>
    <path d="M24.0823 41.2296C24.1056 41.2311 24.1288 41.2296 24.1521 41.2267L32.2576 40.3867C32.5338 40.3576 32.7271 40.1091 32.6893 39.8315C32.6515 39.5539 32.3943 39.3504 32.1181 39.3795L24.0111 40.2195C23.7349 40.2486 23.5416 40.4971 23.5794 40.7747C23.6172 41.0305 23.8338 41.2209 24.0823 41.2296Z"
          fill="#475577"/>
    <path d="M24.0823 42.9984C24.1056 42.9999 24.1288 42.9984 24.1521 42.9955L32.2576 42.1555C32.5338 42.1264 32.7271 41.8779 32.6893 41.6003C32.6515 41.3227 32.3943 41.1207 32.1181 41.1483L24.0111 41.9883C23.7349 42.0174 23.5416 42.2659 23.5794 42.5435C23.6172 42.7979 23.8338 42.9897 24.0823 42.9984Z"
          fill="#475577"/>
    <path d="M24.4065 44.7483C24.4298 44.7498 24.453 44.7483 24.4763 44.7454L32.1604 43.9489C32.4365 43.9199 32.6298 43.6713 32.592 43.3937C32.5543 43.1161 32.297 42.9127 32.0209 42.9417L24.3368 43.7382C24.0606 43.7673 23.8673 44.0158 23.9051 44.2934C23.94 44.5492 24.158 44.7396 24.4065 44.7483Z"
          fill="#475577"/>
</svg>