<svg width="48" height="48" viewBox="0 0 48 48" fill="none" xmlns="http://www.w3.org/2000/svg">
<path d="M46.8897 29.7082C43.7379 42.3485 30.9332 50.0404 18.29 46.889C5.65263 43.7376 -2.04097 30.9344 1.11154 18.2949C4.26184 5.65314 17.0658 -2.0403 29.7054 1.11111C42.3479 4.26251 50.0407 17.0672 46.889 29.7082H46.8897Z" fill="url(#paint0_radial_1285_590)"/>
<path fill-rule="evenodd" clip-rule="evenodd" d="M29.6073 1.50378C17.1847 -1.59353 4.60047 5.96787 1.50424 18.3926L1.50422 18.3927C-1.59418 30.8153 5.9674 43.3988 18.3878 46.4961C30.7547 49.5787 43.2787 42.1055 46.4517 29.7882L46.4961 29.6102C49.5937 17.1861 42.0329 4.60111 29.6074 1.50379L29.6073 1.50378ZM47.4014 29.3033H47.4077L47.2824 29.806C44.0765 42.6633 31.052 50.4872 18.1919 47.2817L18.1919 47.2817C5.33766 44.0762 -2.48797 31.0533 0.718634 18.1969C3.923 5.33817 16.9467 -2.4873 29.8032 0.718197C42.4951 3.8819 50.2827 16.6103 47.4014 29.3033ZM1.11145 18.2948L1.11147 18.2948L1.11145 18.2948ZM1.11149 18.2948L1.11147 18.2948L1.11149 18.2948L1.11145 18.2948" fill="#069C9C"/>
<path fill-rule="evenodd" clip-rule="evenodd" d="M36.1705 12.9674C36.1707 12.9672 36.1709 12.9669 36.1708 12.9666C34.7889 8.79209 30.8173 8.14644 26.0943 8.75957C25.9754 8.77501 25.8632 8.69797 25.8366 8.58102L24.5687 3.00431C24.5404 2.87972 24.4164 2.80169 24.2919 2.83003L21.0845 3.55973C20.96 3.58807 20.8819 3.71201 20.9103 3.83658L22.1379 9.23602C22.1663 9.36061 22.0882 9.48454 21.9637 9.51322C21.1514 9.70033 20.3276 9.90325 19.507 10.1069C19.3813 10.1381 19.2544 10.06 19.2257 9.93363L17.991 4.49987C17.9627 4.37528 17.8387 4.29724 17.7141 4.32556L14.5096 5.05395C14.385 5.08226 14.307 5.20618 14.3352 5.33075L15.5981 10.8918C15.626 11.0146 15.5506 11.1371 15.4284 11.1675C14.7192 11.3437 14.0215 11.515 13.3369 11.6713C13.3317 11.6724 13.3265 11.6693 13.3252 11.6641C13.3239 11.659 13.3187 11.6558 13.3135 11.657L8.50342 12.7487C8.37878 12.777 8.3007 12.901 8.32906 13.0256L9.1144 16.4764C9.14313 16.6026 9.26887 16.681 9.3946 16.6501C9.81799 16.5462 10.7353 16.3228 11.3134 16.1939C11.509 16.1502 12.1365 16.0367 12.3365 16.0235C13.4545 15.9501 14.0091 16.5887 14.2822 17.2055C14.288 17.2186 14.2924 17.2321 14.2955 17.2461L15.7963 23.8462C15.8245 23.9703 15.9475 24.0469 16.0733 24.028C16.1254 24.0202 16.181 24.0133 16.2397 24.0081L16.0797 24.0446C15.9552 24.073 15.8772 24.1969 15.9055 24.3214L18.0326 33.6866C18.0645 34.0611 18.0078 34.6324 17.4929 34.979C17.3164 35.0978 16.5542 35.3156 16.3469 35.363C15.7495 35.4997 14.8582 35.6903 14.4687 35.7731C14.3567 35.7969 14.2798 35.8987 14.2865 36.013L14.5255 40.0759C14.5339 40.2186 14.6684 40.3196 14.8077 40.2879L19.3023 39.2657C19.8399 39.1442 20.3734 39.029 20.901 38.9151L20.9016 38.915C21.1676 38.8575 21.4321 38.8004 21.6948 38.743C21.819 38.7158 21.942 38.7938 21.9702 38.9177L23.2515 44.5463C23.2798 44.6708 23.4037 44.7488 23.5283 44.7205L26.7311 43.993C26.8557 43.9647 26.9337 43.8407 26.9054 43.7161L25.6428 38.1584C25.6141 38.032 25.6949 37.9067 25.8218 37.8804C26.6673 37.705 27.4888 37.5256 28.2919 37.3436C28.4166 37.3153 28.5407 37.3933 28.569 37.518L29.8256 43.0523C29.8539 43.177 29.9779 43.255 30.1025 43.2267L33.3089 42.4974C33.4334 42.4691 33.5115 42.3452 33.4832 42.2206L32.2048 36.5922C32.1776 36.4727 32.2497 36.3524 32.3673 36.3179C38.3167 34.5693 42.169 32.032 41.3984 26.2063C40.8089 21.7321 38.4144 20.0729 35.0593 19.8583C34.8448 19.8446 34.7443 19.5653 34.8971 19.4143C36.4475 17.883 37.1115 15.7991 36.1702 12.9681C36.1701 12.9678 36.1702 12.9675 36.1705 12.9674ZM34.0074 27.1255C34.0071 27.1257 34.007 27.126 34.007 27.1263C34.955 31.2943 28.3848 32.6912 25.3813 33.3298C25.206 33.3671 25.0429 33.4018 24.8941 33.4343C24.7692 33.4616 24.6452 33.3835 24.6168 33.2589L22.8898 25.6578C22.8615 25.5332 22.9396 25.4092 23.0638 25.3793C23.2624 25.3315 23.4858 25.2752 23.7297 25.2136C26.7817 24.4436 33.0364 22.8656 34.0077 27.1248C34.0078 27.1251 34.0076 27.1254 34.0074 27.1255ZM22.6041 21.6168C25.1131 21.0895 30.5822 19.94 29.7223 16.1524C28.842 12.2778 23.6316 13.6088 21.0869 14.2588C20.897 14.3073 20.722 14.352 20.5647 14.3905C20.4406 14.4208 20.3626 14.5448 20.3909 14.6694L21.9484 21.5213C21.9767 21.6458 22.1007 21.7239 22.2256 21.697C22.3422 21.6719 22.4688 21.6453 22.6041 21.6168Z" fill="#FCFCFC"/>
<path fill-rule="evenodd" clip-rule="evenodd" d="M24.2022 2.43518C24.5448 2.35723 24.8857 2.57182 24.9636 2.91444L26.1967 8.33837C28.5226 8.04887 30.7134 8.06166 32.5177 8.68497C34.3882 9.33109 35.823 10.6275 36.5552 12.8393C36.5582 12.8484 36.5609 12.8575 36.5632 12.8667C37.0447 14.3274 37.1228 15.6234 36.8629 16.7681C36.6248 17.8167 36.1084 18.7142 35.3986 19.4786C37.006 19.6266 38.43 20.119 39.5396 21.1364C40.7217 22.2202 41.4968 23.8532 41.7998 26.1531C42.2 29.1781 41.3974 31.4 39.6866 33.0797C38.0312 34.705 35.5578 35.7897 32.6356 36.6606L33.878 42.1308C33.9558 42.4734 33.7413 42.8141 33.3988 42.892L30.1924 43.6213C29.8497 43.6992 29.5088 43.4846 29.431 43.1419L28.2127 37.7764C27.5161 37.9335 26.8053 38.0886 26.0768 38.2407L27.3003 43.6263C27.3781 43.9689 27.1635 44.3098 26.8209 44.3876L23.6181 45.1151C23.2756 45.1929 22.9348 44.9784 22.8569 44.636L21.6137 39.1749C21.4057 39.2202 21.1967 39.2653 20.9871 39.3105L20.9866 39.3106L20.9858 39.3108L20.9854 39.3109C20.4578 39.4248 19.9266 39.5395 19.3917 39.6605L14.8976 40.6825C14.5144 40.7697 14.1446 40.4919 14.1215 40.0996L13.8825 36.0366C13.8641 35.7244 14.0752 35.4428 14.3846 35.377C14.7745 35.2941 15.6628 35.1042 16.2567 34.9683C16.3461 34.9478 16.5773 34.8849 16.8098 34.8116C16.9251 34.7752 17.0353 34.738 17.1247 34.704C17.1694 34.6869 17.2058 34.6719 17.2334 34.6593C17.2584 34.6479 17.2683 34.642 17.2684 34.6421C17.2684 34.6421 17.2684 34.6421 17.2683 34.6421C17.5885 34.4258 17.6534 34.064 17.6314 33.7473L15.5109 24.4109C15.4919 24.3275 15.4903 24.2442 15.5037 24.1648C15.4567 24.099 15.4213 24.0222 15.4016 23.9358L13.9048 17.3529C13.7875 17.0933 13.621 16.8524 13.3881 16.6828C13.1573 16.5148 12.8343 16.3964 12.3631 16.4274C12.1962 16.4383 11.5943 16.5459 11.4016 16.5889C10.8284 16.7167 9.91521 16.9391 9.49119 17.0431C9.14382 17.1284 8.7983 16.911 8.7198 16.5661L7.93446 13.1154C7.85646 12.7726 8.07117 12.4316 8.41393 12.3538L13.2241 11.2621C13.2662 11.2525 13.3083 11.2497 13.3492 11.253C13.944 11.1163 14.5495 10.9683 15.1658 10.8155L13.9406 5.42027C13.8628 5.07771 14.0774 4.73694 14.4199 4.65908L17.6245 3.93068C17.9671 3.85281 18.308 4.06743 18.3858 4.41004L19.5814 9.67128C20.2892 9.49584 21.0007 9.32123 21.7051 9.15746L20.5156 3.92621C20.4378 3.58365 20.6523 3.24281 20.9948 3.16488L24.2022 2.43518ZM16.3085 24.2674L18.4336 33.6241L18.436 33.6521C18.4723 34.0779 18.4186 34.8439 17.719 35.3147C17.6317 35.3735 17.5104 35.4235 17.4126 35.4607C17.303 35.5024 17.1766 35.5448 17.0533 35.5837C16.8089 35.6608 16.5553 35.7305 16.4373 35.7575C15.9028 35.8798 15.1363 36.0446 14.6995 36.1377L14.9177 39.8476L19.2127 38.8709L19.2132 38.8708C19.7528 38.7488 20.288 38.6332 20.8152 38.5194L20.8157 38.5192L20.8163 38.5191L20.817 38.519L20.8176 38.5188C21.0832 38.4615 21.3468 38.4046 21.6085 38.3474C21.9494 38.2728 22.2874 38.4867 22.3651 38.8277L23.6078 44.2872L26.4723 43.6365L25.2482 38.248C25.1691 37.9001 25.3915 37.5561 25.7397 37.4838C26.5825 37.3091 27.4016 37.1302 28.2026 36.9486C28.5449 36.871 28.886 37.0853 28.9639 37.4283L30.1821 42.7933L33.0501 42.141L31.8101 36.6818C31.7347 36.3498 31.9345 36.023 32.2533 35.9293C35.2134 35.0593 37.583 34.0104 39.1194 32.502C40.6294 31.0195 41.3677 29.06 40.9972 26.2593L40.9972 26.2591C40.7107 24.0848 39.9938 22.6512 38.9925 21.7332C37.9904 20.8144 36.653 20.3657 35.0336 20.2622C34.7389 20.2433 34.538 20.0404 34.4601 19.8259C34.3824 19.612 34.4059 19.3305 34.6128 19.1262C35.3417 18.4062 35.8509 17.5687 36.0734 16.5888C36.2961 15.6078 36.2382 14.4551 35.7862 13.0957C35.7832 13.0866 35.7805 13.0775 35.7781 13.0683C35.1261 11.1214 33.8879 10.0148 32.2534 9.45023C30.5856 8.87413 28.4862 8.85716 26.1466 9.16089C25.8239 9.20279 25.5156 8.99439 25.442 8.67065L24.2126 3.26313L21.3436 3.91586L22.5328 9.14615C22.6108 9.48903 22.3959 9.82899 22.0547 9.90759C21.246 10.0939 20.4251 10.296 19.6047 10.4997C19.2589 10.5855 18.91 10.3707 18.8311 10.0232L17.6348 4.75864L14.7685 5.41013L15.993 10.8021C16.0697 11.1396 15.8623 11.4767 15.5261 11.5602C14.8166 11.7365 14.1157 11.9087 13.4271 12.0658C13.3845 12.0755 13.342 12.0783 13.3007 12.0749L8.76243 13.105L9.47018 16.2147C9.93689 16.1007 10.7123 15.913 11.2254 15.7986C11.4239 15.7544 12.0771 15.6348 12.3101 15.6195C12.9569 15.577 13.4703 15.7412 13.8646 16.0283C14.2518 16.3102 14.4971 16.6906 14.6525 17.0415C14.6695 17.08 14.6818 17.1186 14.6904 17.1562L16.1577 23.6092C16.1731 23.6076 16.1887 23.6061 16.2045 23.6048L16.3085 24.2674ZM26.0124 13.9132C24.3511 13.8457 22.4707 14.3231 21.1872 14.6509L21.186 14.6512C21.059 14.6836 20.9375 14.7147 20.8231 14.7434L22.3056 21.2659C22.3743 21.2514 22.4455 21.2364 22.5189 21.221L22.521 21.2206C23.7854 20.9548 25.7233 20.5448 27.2384 19.7487C27.9937 19.3519 28.6098 18.8759 28.9887 18.3058C29.358 17.7499 29.5182 17.0813 29.3277 16.242C29.1302 15.3731 28.7009 14.8231 28.1441 14.4731C27.5742 14.1148 26.8392 13.9468 26.0124 13.9132ZM28.5751 13.7877C29.3224 14.2575 29.8744 14.9942 30.1172 16.0626C30.3566 17.117 30.1556 18.0125 29.663 18.7539C29.1798 19.481 28.4331 20.0356 27.615 20.4654C25.9916 21.3185 23.9529 21.7469 22.7065 22.0089L22.6875 22.0129C22.552 22.0414 22.4264 22.0678 22.311 22.0926C21.9718 22.1657 21.6318 21.9542 21.5537 21.6109L19.9963 14.759C19.9182 14.4154 20.1334 14.0791 20.4686 13.9971C20.6235 13.9592 20.7964 13.9151 20.9868 13.8664L21.0081 13.861C22.2704 13.5385 24.2552 13.0315 26.0453 13.1043C26.9492 13.141 27.8409 13.3262 28.5751 13.7877ZM32.6217 24.5692C33.4905 25.0641 34.1344 25.8588 34.4025 27.0347C34.4047 27.0443 34.4066 27.054 34.408 27.0638C34.6619 28.2137 34.3991 29.1921 33.8089 30.0024C33.2254 30.8034 32.3349 31.4245 31.3572 31.9135C29.4113 32.8868 26.9776 33.4042 25.4834 33.7219L25.4656 33.7257L25.4653 33.7257C25.2898 33.7631 25.128 33.7975 24.9806 33.8297C24.6406 33.9039 24.3002 33.6918 24.2222 33.3484L22.4952 25.7474C22.4171 25.4038 22.6325 25.0667 22.9692 24.9856C23.1652 24.9384 23.3863 24.8827 23.6308 24.821L23.6508 24.8159C25.1674 24.4333 27.5362 23.8357 29.6573 23.8784C30.7246 23.8999 31.769 24.0834 32.6217 24.5692ZM29.641 24.6879C27.6383 24.6475 25.3652 25.2184 23.8289 25.606L23.8276 25.6063C23.6487 25.6515 23.4793 25.6942 23.3222 25.7329L24.9739 33.0027C25.0766 32.9807 25.1847 32.9577 25.2972 32.9338C26.8081 32.6125 29.1496 32.1124 30.995 31.1894C31.9167 30.7284 32.6787 30.1788 33.1544 29.5257C33.6187 28.8883 33.8222 28.1382 33.6124 27.216C33.6104 27.2072 33.6087 27.1985 33.6074 27.1897C33.3868 26.2504 32.8876 25.6524 32.221 25.2727C31.5324 24.8805 30.6402 24.708 29.641 24.6879Z" fill="#069C9C"/>
<defs>
<radialGradient id="paint0_radial_1285_590" cx="0" cy="0" r="1" gradientUnits="userSpaceOnUse" gradientTransform="translate(24.0001 24.0001) rotate(90) scale(23.5951)">
<stop stop-color="#76E4E3" stop-opacity="0.39"/>
<stop offset="0.973962" stop-color="#68E1DF"/>
</radialGradient>
</defs>
</svg>
